<svg width="33" height="33" viewBox="0 0 33 33" fill="none" xmlns="http://www.w3.org/2000/svg">
<path d="M15.125 5.5H5.5C4.77065 5.5 4.07118 5.78973 3.55546 6.30546C3.03973 6.82118 2.75 7.52065 2.75 8.25V27.5C2.75 28.2293 3.03973 28.9288 3.55546 29.4445C4.07118 29.9603 4.77065 30.25 5.5 30.25H24.75C25.4793 30.25 26.1788 29.9603 26.6945 29.4445C27.2103 28.9288 27.5 28.2293 27.5 27.5V17.875" stroke="url(#paint0_linear_6_255)" stroke-width="2.75" stroke-linecap="round" stroke-linejoin="round"/>
<path d="M25.4375 3.43745C25.9845 2.89044 26.7264 2.58313 27.5 2.58313C28.2736 2.58313 29.0155 2.89044 29.5625 3.43745C30.1095 3.98445 30.4168 4.72636 30.4168 5.49995C30.4168 6.27353 30.1095 7.01544 29.5625 7.56245L16.5 20.6249L11 21.9999L12.375 16.4999L25.4375 3.43745Z" stroke="url(#paint1_linear_6_255)" stroke-width="2.75" stroke-linecap="round" stroke-linejoin="round"/>
<defs>
<linearGradient id="paint0_linear_6_255" x1="15.125" y1="5.5" x2="15.125" y2="30.25" gradientUnits="userSpaceOnUse">
<stop stop-color="#18A0FB"/>
<stop offset="1" stop-color="#0077C7"/>
</linearGradient>
<linearGradient id="paint1_linear_6_255" x1="20.7084" y1="2.58313" x2="20.7084" y2="21.9999" gradientUnits="userSpaceOnUse">
<stop stop-color="#18A0FB"/>
<stop offset="1" stop-color="#0077C7"/>
</linearGradient>
</defs>
</svg>
