<svg width="16" height="16" viewBox="0 0 16 16" fill="none" xmlns="http://www.w3.org/2000/svg">
<path d="M1.33299 3.99999C1.69899 3.99999 1.99899 3.69999 1.99899 3.33399V2.66699C1.99999 2.29999 2.29998 1.99999 2.66598 1.99999H3.33298C3.69898 1.99999 3.99899 1.69999 3.99899 1.33399C3.99899 0.966992 3.69898 0.666992 3.33298 0.666992H2.66598C1.55898 0.666992 0.665985 1.55999 0.665985 2.66699V3.33399C0.665985 3.69999 0.965985 3.99999 1.33299 3.99999ZM3.33298 14H2.66598C2.48942 13.9995 2.32022 13.9292 2.19528 13.8044C2.07033 13.6796 1.99978 13.5106 1.99899 13.334V12.667C1.99899 12.3 1.69899 12.001 1.33299 12.001C0.965985 12.001 0.665985 12.301 0.665985 12.667V13.334C0.665985 14.441 1.55898 15.334 2.66598 15.334H3.33298C3.69898 15.334 3.99899 15.034 3.99899 14.667C3.99899 14.3 3.69898 14.001 3.33298 14.001V14ZM13.333 0.666992H12.667C12.3 0.666992 12 0.966992 12 1.33399C12 1.69999 12.3 1.99999 12.667 1.99999H13.333C13.7 1.99999 14 2.29999 14 2.66699V3.33399C14 3.69999 14.3 3.99999 14.667 3.99999C15.033 3.99999 15.333 3.69999 15.333 3.33399V2.66699C15.333 1.55999 14.44 0.666992 13.333 0.666992ZM14.667 12C14.3 12 14 12.3 14 12.667V13.334C14 13.701 13.7 14.001 13.333 14.001H12.667C12.3 14.001 12 14.301 12 14.667C12 15.034 12.3 15.334 12.667 15.334H13.333C14.44 15.334 15.333 14.441 15.333 13.334V12.667C15.333 12.3 15.033 12.001 14.667 12.001V12ZM12.665 9.91399V6.08699C12.665 5.60699 12.412 5.16699 11.999 4.93399L8.66499 3.01399C8.46289 2.89541 8.23281 2.83289 7.99849 2.83289C7.76416 2.83289 7.53408 2.89541 7.33198 3.01399L3.99899 4.92599C3.58499 5.16599 3.33198 5.60599 3.33198 6.08599V9.91299C3.33198 10.393 3.58499 10.833 3.99899 11.066L7.33198 12.986C7.53408 13.1046 7.76416 13.1671 7.99849 13.1671C8.23281 13.1671 8.46289 13.1046 8.66499 12.986L12 11.067C12.2032 10.9511 12.372 10.7832 12.489 10.5806C12.606 10.378 12.6671 10.148 12.666 9.91399H12.665ZM7.33198 11.447L4.66499 9.91399V6.82699L7.33198 8.37999V11.447ZM7.99899 7.22699L5.35899 5.68699L7.99899 4.16699L10.639 5.68699L7.99899 7.22699ZM11.332 9.91399L8.66499 11.447V8.37999L11.332 6.82699V9.91399Z" fill="#989EA6"/>
</svg>
