<svg width="33" height="33" viewBox="0 0 33 33" fill="none" xmlns="http://www.w3.org/2000/svg">
<path d="M4.125 24.75V16.5C4.125 13.2179 5.42879 10.0703 7.74955 7.74955C10.0703 5.42879 13.2179 4.125 16.5 4.125C19.7821 4.125 22.9297 5.42879 25.2504 7.74955C27.5712 10.0703 28.875 13.2179 28.875 16.5V24.75" stroke="url(#paint0_linear_4_234)" stroke-width="2.75" stroke-linecap="round" stroke-linejoin="round"/>
<path d="M28.875 26.125C28.875 26.8543 28.5853 27.5538 28.0695 28.0695C27.5538 28.5853 26.8543 28.875 26.125 28.875H24.75C24.0207 28.875 23.3212 28.5853 22.8055 28.0695C22.2897 27.5538 22 26.8543 22 26.125V22C22 21.2707 22.2897 20.5712 22.8055 20.0555C23.3212 19.5397 24.0207 19.25 24.75 19.25H28.875V26.125ZM4.125 26.125C4.125 26.8543 4.41473 27.5538 4.93046 28.0695C5.44618 28.5853 6.14565 28.875 6.875 28.875H8.25C8.97935 28.875 9.67882 28.5853 10.1945 28.0695C10.7103 27.5538 11 26.8543 11 26.125V22C11 21.2707 10.7103 20.5712 10.1945 20.0555C9.67882 19.5397 8.97935 19.25 8.25 19.25H4.125V26.125Z" stroke="url(#paint1_linear_4_234)" stroke-width="2.75" stroke-linecap="round" stroke-linejoin="round"/>
<defs>
<linearGradient id="paint0_linear_4_234" x1="16.5" y1="4.125" x2="16.5" y2="24.75" gradientUnits="userSpaceOnUse">
<stop stop-color="#18A0FB"/>
<stop offset="1" stop-color="#0077C7"/>
</linearGradient>
<linearGradient id="paint1_linear_4_234" x1="16.5" y1="19.25" x2="16.5" y2="28.875" gradientUnits="userSpaceOnUse">
<stop stop-color="#18A0FB"/>
<stop offset="1" stop-color="#0077C7"/>
</linearGradient>
</defs>
</svg>
