<svg width="32" height="33" viewBox="0 0 32 33" fill="none" xmlns="http://www.w3.org/2000/svg">
<path d="M16 0.0283203C11.6533 0.0283203 11.1107 0.0483167 9.404 0.124303C7.7 0.204288 6.54 0.472239 5.52 0.868167C4.468 1.27609 3.57467 1.82399 2.68533 2.71316C1.796 3.60234 1.24667 4.49417 0.84 5.54731C0.444 6.56712 0.174667 7.72691 0.096 9.4306C0.016 11.137 0 11.6795 0 16.0254C0 20.3713 0.02 20.9138 0.096 22.6202C0.176 24.3226 0.444 25.4837 0.84 26.5035C1.248 27.554 1.796 28.4484 2.68533 29.3377C3.57467 30.2255 4.46667 30.776 5.52 31.1826C6.54133 31.5772 7.70133 31.8478 9.404 31.9265C11.1107 32.0065 11.6533 32.0225 16 32.0225C20.3467 32.0225 20.8893 32.0025 22.596 31.9265C24.2987 31.8465 25.46 31.5772 26.48 31.1826C27.5307 30.7747 28.4253 30.2255 29.3147 29.3377C30.2027 28.4484 30.7533 27.558 31.16 26.5035C31.5547 25.4837 31.8253 24.3226 31.904 22.6202C31.984 20.9138 32 20.3713 32 16.0254C32 11.6795 31.98 11.137 31.904 9.4306C31.824 7.72824 31.5547 6.56579 31.16 5.54731C30.752 4.4955 30.2027 3.60234 29.3147 2.71316C28.4253 1.82399 27.5347 1.27476 26.48 0.868167C25.46 0.472239 24.2987 0.202955 22.596 0.124303C20.8893 0.0443174 20.3467 0.0283203 16 0.0283203ZM16 2.90779C20.2707 2.90779 20.78 2.92912 22.4667 3.00245C24.0267 3.07576 24.8733 3.33438 25.436 3.55567C26.1853 3.84495 26.716 4.19156 27.2787 4.75013C27.8373 5.31002 28.184 5.84193 28.4733 6.59112C28.692 7.15369 28.9533 8.00019 29.024 9.55991C29.1 11.2476 29.1173 11.7542 29.1173 16.0254C29.1173 20.2966 29.0973 20.8045 29.0187 22.4909C28.9373 24.0506 28.6773 24.8971 28.4573 25.4597C28.1587 26.2088 27.8187 26.7394 27.2587 27.302C26.7 27.8605 26.16 28.2072 25.4187 28.4964C24.8587 28.7151 23.9987 28.9763 22.4387 29.047C20.74 29.123 20.24 29.1403 15.96 29.1403C11.6787 29.1403 11.1787 29.1203 9.48133 29.0417C7.92 28.9603 7.06 28.7004 6.5 28.4804C5.74133 28.1819 5.22 27.8419 4.66133 27.282C4.1 26.7234 3.74133 26.1835 3.46133 25.4424C3.24133 24.8825 2.98267 24.0226 2.90133 22.4629C2.84133 20.7832 2.82 20.2646 2.82 16.0054C2.82 11.7449 2.84133 11.225 2.90133 9.52525C2.98267 7.96554 3.24133 7.10702 3.46133 6.54713C3.74133 5.78727 4.1 5.26736 4.66133 4.70613C5.22 4.14757 5.74133 3.78763 6.5 3.50901C7.06 3.28772 7.90133 3.02777 9.46133 2.94779C11.1613 2.8878 11.6613 2.8678 15.94 2.8678L16 2.90779ZM16 7.81089C11.46 7.81089 7.784 11.4902 7.784 16.0254C7.784 20.5646 11.464 24.2399 16 24.2399C20.54 24.2399 24.216 20.5606 24.216 16.0254C24.216 11.4862 20.536 7.81089 16 7.81089ZM16 21.3577C13.0533 21.3577 10.6667 18.9716 10.6667 16.0254C10.6667 13.0792 13.0533 10.6931 16 10.6931C18.9467 10.6931 21.3333 13.0792 21.3333 16.0254C21.3333 18.9716 18.9467 21.3577 16 21.3577ZM26.4613 7.48695C26.4613 8.54676 25.6 9.4066 24.5413 9.4066C23.4813 9.4066 22.6213 8.54543 22.6213 7.48695C22.6213 6.42848 23.4827 5.56864 24.5413 5.56864C25.5987 5.56731 26.4613 6.42848 26.4613 7.48695Z" fill="white"/>
</svg>
