<svg width="32" height="24" viewBox="0 0 32 24" fill="none" xmlns="http://www.w3.org/2000/svg">
<path d="M31.3307 4.27467C31.1499 3.59381 30.7934 2.97239 30.2968 2.47265C29.8003 1.9729 29.1811 1.61236 28.5013 1.42714C26.0067 0.753906 16 0.753906 16 0.753906C16 0.753906 5.99333 0.753906 3.49733 1.42714C2.81788 1.61269 2.19906 1.97336 1.70277 2.47307C1.20648 2.97278 0.850122 3.59403 0.669333 4.27467C0 6.78626 0 12.0254 0 12.0254C0 12.0254 0 17.2646 0.669333 19.7761C0.850115 20.457 1.20663 21.0784 1.70319 21.5782C2.19974 22.0779 2.8189 22.4384 3.49867 22.6237C5.99333 23.2969 16 23.2969 16 23.2969C16 23.2969 26.0067 23.2969 28.5027 22.6237C29.1825 22.4386 29.8017 22.0781 30.2983 21.5784C30.7949 21.0785 31.1513 20.457 31.332 19.7761C32 17.2646 32 12.0254 32 12.0254C32 12.0254 32 6.78626 31.3307 4.27467ZM12.7267 16.7819V7.26889L21.0907 12.0254L12.7267 16.7819Z" fill="white"/>
</svg>
