<svg width="168" height="35" viewBox="0 0 168 35" fill="none" xmlns="http://www.w3.org/2000/svg">
<path d="M11.1641 27H0.195312V22.2188H11.1641C11.4922 22.2188 11.7734 22.1016 12.0078 21.8672C12.2422 21.6328 12.3594 21.3516 12.3594 21.0234C12.3594 20.6836 12.2422 20.4609 12.0078 20.3555C11.7734 20.25 11.4922 20.1973 11.1641 20.1973H6.17188C5.33984 20.1973 4.56055 20.0391 3.83398 19.7227C3.10742 19.4062 2.47461 18.9785 1.93555 18.4395C1.39648 17.8887 0.96875 17.25 0.652344 16.5234C0.347656 15.7969 0.195312 15.0176 0.195312 14.1855C0.195312 13.3535 0.347656 12.5742 0.652344 11.8477C0.96875 11.1211 1.39648 10.4883 1.93555 9.94922C2.47461 9.41016 3.10742 8.98828 3.83398 8.68359C4.56055 8.36719 5.33984 8.20898 6.17188 8.20898H15.8926V12.9902H6.17188C5.84375 12.9902 5.5625 13.1074 5.32812 13.3418C5.09375 13.5762 4.97656 13.8574 4.97656 14.1855C4.97656 14.5254 5.09375 14.8184 5.32812 15.0645C5.5625 15.2988 5.84375 15.416 6.17188 15.416H11.1641C11.9844 15.416 12.7578 15.5566 13.4844 15.8379C14.2109 16.1074 14.8438 16.4883 15.3828 16.9805C15.9219 17.4727 16.3496 18.0645 16.666 18.7559C16.9824 19.4473 17.1406 20.2031 17.1406 21.0234C17.1406 21.8555 16.9824 22.6348 16.666 23.3613C16.3496 24.0762 15.9219 24.709 15.3828 25.2598C14.8438 25.7988 14.2109 26.2266 13.4844 26.543C12.7578 26.8477 11.9844 27 11.1641 27Z" fill="white"/>
<path d="M29.1465 27C27.9863 27 26.8965 26.7832 25.877 26.3496C24.8574 25.9043 23.9609 25.3008 23.1875 24.5391C22.4258 23.7656 21.8223 22.8691 21.377 21.8496C20.9434 20.8301 20.7266 19.7402 20.7266 18.5801V12.9902H18.3887V8.20898H20.7266V0.685547H25.5078V8.20898H32.7852V12.9902H25.5078V18.5801C25.5078 19.084 25.6016 19.5586 25.7891 20.0039C25.9766 20.4375 26.2344 20.8184 26.5625 21.1465C26.8906 21.4746 27.2773 21.7383 27.7227 21.9375C28.168 22.125 28.6426 22.2188 29.1465 22.2188H32.7852V27H29.1465Z" fill="white"/>
<path d="M49.3262 24.8027C48.9395 25.1543 48.5234 25.4883 48.0781 25.8047C47.6445 26.1094 47.1875 26.3789 46.707 26.6133C46.2266 26.8359 45.7285 27.0117 45.2129 27.1406C44.709 27.2812 44.1934 27.3516 43.666 27.3516C42.5059 27.3516 41.416 27.1465 40.3965 26.7363C39.377 26.3262 38.4805 25.7461 37.707 24.9961C36.9453 24.2344 36.3418 23.3145 35.8965 22.2363C35.4629 21.1465 35.2461 19.9277 35.2461 18.5801V8.17383H40.0273V18.5801C40.0273 19.2129 40.1211 19.7812 40.3086 20.2852C40.5078 20.7773 40.7715 21.1934 41.0996 21.5332C41.4277 21.873 41.8086 22.1309 42.2422 22.3066C42.6875 22.4824 43.1621 22.5703 43.666 22.5703C44.1582 22.5703 44.6211 22.459 45.0547 22.2363C45.5 22.002 45.8867 21.6973 46.2148 21.3223C46.543 20.9473 46.8008 20.5254 46.9883 20.0566C47.1758 19.5762 47.2695 19.084 47.2695 18.5801V8.17383H52.0684V27H50.9082L49.3262 24.8027Z" fill="white"/>
<path d="M73.9355 27H72.7754L70.9121 24.416C70.4551 24.8262 69.9688 25.2129 69.4531 25.5762C68.9492 25.9277 68.416 26.2383 67.8535 26.5078C67.291 26.7656 66.7109 26.9707 66.1133 27.123C65.5273 27.2754 64.9297 27.3516 64.3203 27.3516C62.9961 27.3516 61.748 27.1055 60.5762 26.6133C59.416 26.1094 58.3965 25.418 57.5176 24.5391C56.6504 23.6484 55.9648 22.5996 55.4609 21.3926C54.957 20.1738 54.7051 18.8496 54.7051 17.4199C54.7051 16.002 54.957 14.6836 55.4609 13.4648C55.9648 12.2461 56.6504 11.1914 57.5176 10.3008C58.3965 9.41016 59.416 8.71289 60.5762 8.20898C61.748 7.70508 62.9961 7.45312 64.3203 7.45312C64.7422 7.45312 65.1758 7.48828 65.6211 7.55859C66.0781 7.62891 66.5176 7.74609 66.9395 7.91016C67.373 8.0625 67.7773 8.26758 68.1523 8.52539C68.5273 8.7832 68.8438 9.09961 69.1016 9.47461V0.685547H73.9355V27ZM69.1016 17.4199C69.1016 16.7637 68.9727 16.1309 68.7148 15.5215C68.4688 14.9004 68.1289 14.3555 67.6953 13.8867C67.2617 13.4062 66.752 13.0254 66.166 12.7441C65.5918 12.4512 64.9766 12.3047 64.3203 12.3047C63.6641 12.3047 63.043 12.4219 62.457 12.6562C61.8828 12.8906 61.3789 13.2305 60.9453 13.6758C60.5234 14.1094 60.1895 14.6426 59.9434 15.2754C59.6973 15.9082 59.5742 16.623 59.5742 17.4199C59.5742 18.1113 59.6973 18.7676 59.9434 19.3887C60.1895 20.0098 60.5234 20.5547 60.9453 21.0234C61.3789 21.4922 61.8828 21.8613 62.457 22.1309C63.043 22.4004 63.6641 22.5352 64.3203 22.5352C64.9766 22.5352 65.5918 22.3945 66.166 22.1133C66.752 21.8203 67.2617 21.4395 67.6953 20.9707C68.1289 20.4902 68.4688 19.9453 68.7148 19.3359C68.9727 18.7148 69.1016 18.0762 69.1016 17.4199Z" fill="white"/>
<path d="M82.1445 34.1719V29.3379L84.8164 29.373C85.2852 29.373 85.7363 29.2969 86.1699 29.1445C86.6035 28.9922 87.002 28.7812 87.3652 28.5117C87.7402 28.2422 88.0684 27.9199 88.3496 27.5449C88.6309 27.1816 88.8594 26.7832 89.0352 26.3496C88.5078 26.5723 87.9688 26.7949 87.418 27.0176C86.8789 27.2402 86.334 27.3516 85.7832 27.3516C84.623 27.3516 83.5332 27.1465 82.5137 26.7363C81.4941 26.3262 80.5977 25.7461 79.8242 24.9961C79.0625 24.2344 78.459 23.3145 78.0137 22.2363C77.5801 21.1465 77.3633 19.9277 77.3633 18.5801V8.17383H82.1445V18.5801C82.1445 19.248 82.2383 19.834 82.4258 20.3379C82.625 20.8301 82.8887 21.2461 83.2168 21.5859C83.5449 21.9141 83.9258 22.1602 84.3594 22.3242C84.8047 22.4883 85.2793 22.5703 85.7832 22.5703C86.2754 22.5703 86.7383 22.459 87.1719 22.2363C87.6172 22.002 88.0039 21.6973 88.332 21.3223C88.6602 20.9473 88.918 20.5254 89.1055 20.0566C89.293 19.5762 89.3867 19.084 89.3867 18.5801V8.17383H94.2207V24.627C94.209 25.9512 93.9512 27.1934 93.4473 28.3535C92.9434 29.5137 92.252 30.5273 91.373 31.3945C90.5059 32.2617 89.4922 32.9473 88.332 33.4512C87.1719 33.9551 85.9297 34.207 84.6055 34.207L82.1445 34.1719Z" fill="white"/>
<path d="M108.23 27H97.2617V22.2188H108.23C108.559 22.2188 108.84 22.1016 109.074 21.8672C109.309 21.6328 109.426 21.3516 109.426 21.0234C109.426 20.6836 109.309 20.4609 109.074 20.3555C108.84 20.25 108.559 20.1973 108.23 20.1973H103.238C102.406 20.1973 101.627 20.0391 100.9 19.7227C100.174 19.4062 99.541 18.9785 99.002 18.4395C98.4629 17.8887 98.0352 17.25 97.7188 16.5234C97.4141 15.7969 97.2617 15.0176 97.2617 14.1855C97.2617 13.3535 97.4141 12.5742 97.7188 11.8477C98.0352 11.1211 98.4629 10.4883 99.002 9.94922C99.541 9.41016 100.174 8.98828 100.9 8.68359C101.627 8.36719 102.406 8.20898 103.238 8.20898H112.959V12.9902H103.238C102.91 12.9902 102.629 13.1074 102.395 13.3418C102.16 13.5762 102.043 13.8574 102.043 14.1855C102.043 14.5254 102.16 14.8184 102.395 15.0645C102.629 15.2988 102.91 15.416 103.238 15.416H108.23C109.051 15.416 109.824 15.5566 110.551 15.8379C111.277 16.1074 111.91 16.4883 112.449 16.9805C112.988 17.4727 113.416 18.0645 113.732 18.7559C114.049 19.4473 114.207 20.2031 114.207 21.0234C114.207 21.8555 114.049 22.6348 113.732 23.3613C113.416 24.0762 112.988 24.709 112.449 25.2598C111.91 25.7988 111.277 26.2266 110.551 26.543C109.824 26.8477 109.051 27 108.23 27Z" fill="#18A0FB"/>
<path d="M124.262 22.3945C124.449 22.4531 124.637 22.4941 124.824 22.5176C125.012 22.5293 125.199 22.5352 125.387 22.5352C125.855 22.5352 126.307 22.4707 126.74 22.3418C127.174 22.2129 127.578 22.0312 127.953 21.7969C128.34 21.5508 128.68 21.2578 128.973 20.918C129.277 20.5664 129.523 20.1797 129.711 19.7578L133.227 23.291C132.781 23.9238 132.266 24.4922 131.68 24.9961C131.105 25.5 130.479 25.9277 129.799 26.2793C129.131 26.6309 128.422 26.8945 127.672 27.0703C126.934 27.2578 126.172 27.3516 125.387 27.3516C124.062 27.3516 122.814 27.1055 121.643 26.6133C120.482 26.1211 119.463 25.4355 118.584 24.5566C117.717 23.6777 117.031 22.6348 116.527 21.4277C116.023 20.209 115.771 18.873 115.771 17.4199C115.771 15.9316 116.023 14.5723 116.527 13.3418C117.031 12.1113 117.717 11.0625 118.584 10.1953C119.463 9.32812 120.482 8.6543 121.643 8.17383C122.814 7.69336 124.062 7.45312 125.387 7.45312C126.172 7.45312 126.939 7.54688 127.689 7.73438C128.439 7.92188 129.148 8.19141 129.816 8.54297C130.496 8.89453 131.129 9.32812 131.715 9.84375C132.301 10.3477 132.816 10.916 133.262 11.5488L124.262 22.3945ZM126.723 12.498C126.5 12.416 126.277 12.3633 126.055 12.3398C125.844 12.3164 125.621 12.3047 125.387 12.3047C124.73 12.3047 124.109 12.4277 123.523 12.6738C122.949 12.9082 122.445 13.248 122.012 13.6934C121.59 14.1387 121.256 14.6777 121.01 15.3105C120.764 15.9316 120.641 16.6348 120.641 17.4199C120.641 17.5957 120.646 17.7949 120.658 18.0176C120.682 18.2402 120.711 18.4688 120.746 18.7031C120.793 18.9258 120.846 19.1426 120.904 19.3535C120.963 19.5645 121.039 19.752 121.133 19.916L126.723 12.498Z" fill="#18A0FB"/>
<path d="M145.127 27C143.967 27 142.877 26.7832 141.857 26.3496C140.838 25.9043 139.941 25.3008 139.168 24.5391C138.406 23.7656 137.803 22.8691 137.357 21.8496C136.924 20.8301 136.707 19.7402 136.707 18.5801V12.9902H134.369V8.20898H136.707V0.685547H141.488V8.20898H148.766V12.9902H141.488V18.5801C141.488 19.084 141.582 19.5586 141.77 20.0039C141.957 20.4375 142.215 20.8184 142.543 21.1465C142.871 21.4746 143.258 21.7383 143.703 21.9375C144.148 22.125 144.623 22.2188 145.127 22.2188H148.766V27H145.127Z" fill="#18A0FB"/>
<path d="M161.809 27H150.84V22.2188H161.809C162.137 22.2188 162.418 22.1016 162.652 21.8672C162.887 21.6328 163.004 21.3516 163.004 21.0234C163.004 20.6836 162.887 20.4609 162.652 20.3555C162.418 20.25 162.137 20.1973 161.809 20.1973H156.816C155.984 20.1973 155.205 20.0391 154.479 19.7227C153.752 19.4062 153.119 18.9785 152.58 18.4395C152.041 17.8887 151.613 17.25 151.297 16.5234C150.992 15.7969 150.84 15.0176 150.84 14.1855C150.84 13.3535 150.992 12.5742 151.297 11.8477C151.613 11.1211 152.041 10.4883 152.58 9.94922C153.119 9.41016 153.752 8.98828 154.479 8.68359C155.205 8.36719 155.984 8.20898 156.816 8.20898H166.537V12.9902H156.816C156.488 12.9902 156.207 13.1074 155.973 13.3418C155.738 13.5762 155.621 13.8574 155.621 14.1855C155.621 14.5254 155.738 14.8184 155.973 15.0645C156.207 15.2988 156.488 15.416 156.816 15.416H161.809C162.629 15.416 163.402 15.5566 164.129 15.8379C164.855 16.1074 165.488 16.4883 166.027 16.9805C166.566 17.4727 166.994 18.0645 167.311 18.7559C167.627 19.4473 167.785 20.2031 167.785 21.0234C167.785 21.8555 167.627 22.6348 167.311 23.3613C166.994 24.0762 166.566 24.709 166.027 25.2598C165.488 25.7988 164.855 26.2266 164.129 26.543C163.402 26.8477 162.629 27 161.809 27Z" fill="#18A0FB"/>
</svg>
